<svg xmlns="http://www.w3.org/2000/svg" xmlns:xlink="http://www.w3.org/1999/xlink" width="259" zoomAndPan="magnify" viewBox="0 0 194.25 65.249999" height="87" preserveAspectRatio="xMidYMid meet" version="1.0"><defs><g/><clipPath id="47d4bd8ada"><path d="M 32 11 L 155 11 L 155 35.226562 L 32 35.226562 Z M 32 11 " clip-rule="nonzero"/></clipPath><clipPath id="7d8f82070d"><path d="M 90 28 L 97 28 L 97 35.226562 L 90 35.226562 Z M 90 28 " clip-rule="nonzero"/></clipPath><clipPath id="2b7e29f941"><path d="M 47 28 L 54 28 L 54 35.226562 L 47 35.226562 Z M 47 28 " clip-rule="nonzero"/></clipPath><clipPath id="15e14cd7c4"><path d="M 132 28 L 140 28 L 140 35.226562 L 132 35.226562 Z M 132 28 " clip-rule="nonzero"/></clipPath><clipPath id="1613c2628a"><path d="M 22.253906 0 L 164.488281 0 L 164.488281 35.226562 L 22.253906 35.226562 Z M 22.253906 0 " clip-rule="nonzero"/></clipPath></defs><g fill="#000000" fill-opacity="1"><g transform="translate(38.00924, 54.398499)"><g><path d="M 7.09375 -10.78125 C 6.5625 -10.78125 6.09375 -10.675781 5.6875 -10.46875 C 5.289062 -10.269531 4.957031 -9.976562 4.6875 -9.59375 C 4.414062 -9.21875 4.207031 -8.757812 4.0625 -8.21875 C 3.925781 -7.675781 3.859375 -7.070312 3.859375 -6.40625 C 3.859375 -5.488281 3.96875 -4.707031 4.1875 -4.0625 C 4.414062 -3.425781 4.765625 -2.9375 5.234375 -2.59375 C 5.710938 -2.257812 6.332031 -2.09375 7.09375 -2.09375 C 7.613281 -2.09375 8.132812 -2.148438 8.65625 -2.265625 C 9.1875 -2.390625 9.757812 -2.554688 10.375 -2.765625 L 10.375 -0.484375 C 9.800781 -0.242188 9.238281 -0.078125 8.6875 0.015625 C 8.132812 0.117188 7.515625 0.171875 6.828125 0.171875 C 5.503906 0.171875 4.414062 -0.0976562 3.5625 -0.640625 C 2.707031 -1.191406 2.070312 -1.960938 1.65625 -2.953125 C 1.25 -3.941406 1.046875 -5.097656 1.046875 -6.421875 C 1.046875 -7.390625 1.175781 -8.28125 1.4375 -9.09375 C 1.707031 -9.90625 2.097656 -10.609375 2.609375 -11.203125 C 3.117188 -11.796875 3.75 -12.253906 4.5 -12.578125 C 5.25 -12.898438 6.113281 -13.0625 7.09375 -13.0625 C 7.726562 -13.0625 8.363281 -12.976562 9 -12.8125 C 9.644531 -12.65625 10.265625 -12.4375 10.859375 -12.15625 L 9.96875 -9.9375 C 9.488281 -10.164062 9.003906 -10.363281 8.515625 -10.53125 C 8.035156 -10.695312 7.5625 -10.78125 7.09375 -10.78125 Z M 7.09375 -10.78125 "/></g></g></g><g fill="#000000" fill-opacity="1"><g transform="translate(51.319663, 54.398499)"><g><path d="M 9.5 0 L 8.5625 -3.0625 L 3.875 -3.0625 L 2.9375 0 L 0 0 L 4.546875 -12.921875 L 7.875 -12.921875 L 12.4375 0 Z M 7.921875 -5.359375 L 6.984375 -8.34375 C 6.921875 -8.539062 6.84375 -8.796875 6.75 -9.109375 C 6.65625 -9.429688 6.554688 -9.753906 6.453125 -10.078125 C 6.359375 -10.398438 6.28125 -10.679688 6.21875 -10.921875 C 6.164062 -10.679688 6.085938 -10.382812 5.984375 -10.03125 C 5.878906 -9.675781 5.78125 -9.335938 5.6875 -9.015625 C 5.59375 -8.703125 5.523438 -8.476562 5.484375 -8.34375 L 4.5625 -5.359375 Z M 7.921875 -5.359375 "/></g></g></g><g fill="#000000" fill-opacity="1"><g transform="translate(65.580819, 54.398499)"><g><path d="M 5.375 -12.875 C 6.539062 -12.875 7.503906 -12.734375 8.265625 -12.453125 C 9.023438 -12.171875 9.585938 -11.742188 9.953125 -11.171875 C 10.328125 -10.597656 10.515625 -9.878906 10.515625 -9.015625 C 10.515625 -8.429688 10.398438 -7.914062 10.171875 -7.46875 C 9.953125 -7.03125 9.660156 -6.660156 9.296875 -6.359375 C 8.929688 -6.054688 8.539062 -5.804688 8.125 -5.609375 L 11.90625 0 L 8.875 0 L 5.796875 -4.9375 L 4.34375 -4.9375 L 4.34375 0 L 1.625 0 L 1.625 -12.875 Z M 5.171875 -10.640625 L 4.34375 -10.640625 L 4.34375 -7.15625 L 5.234375 -7.15625 C 6.128906 -7.15625 6.769531 -7.304688 7.15625 -7.609375 C 7.550781 -7.910156 7.75 -8.351562 7.75 -8.9375 C 7.75 -9.550781 7.539062 -9.988281 7.125 -10.25 C 6.707031 -10.507812 6.054688 -10.640625 5.171875 -10.640625 Z M 5.171875 -10.640625 "/></g></g></g><g fill="#000000" fill-opacity="1"><g transform="translate(79.304988, 54.398499)"><g><path d="M 9.03125 0 L 1.625 0 L 1.625 -12.875 L 9.03125 -12.875 L 9.03125 -10.640625 L 4.34375 -10.640625 L 4.34375 -7.8125 L 8.703125 -7.8125 L 8.703125 -5.578125 L 4.34375 -5.578125 L 4.34375 -2.25 L 9.03125 -2.25 Z M 9.03125 0 "/></g></g></g><g fill="#000000" fill-opacity="1"><g transform="translate(91.224526, 54.398499)"><g><path d="M 6.578125 0 L 3.859375 0 L 3.859375 -10.59375 L 0.359375 -10.59375 L 0.359375 -12.875 L 10.078125 -12.875 L 10.078125 -10.59375 L 6.578125 -10.59375 Z M 6.578125 0 "/></g></g></g><g fill="#000000" fill-opacity="1"><g transform="translate(103.487383, 54.398499)"><g><path d="M 9.5 0 L 8.5625 -3.0625 L 3.875 -3.0625 L 2.9375 0 L 0 0 L 4.546875 -12.921875 L 7.875 -12.921875 L 12.4375 0 Z M 7.921875 -5.359375 L 6.984375 -8.34375 C 6.921875 -8.539062 6.84375 -8.796875 6.75 -9.109375 C 6.65625 -9.429688 6.554688 -9.753906 6.453125 -10.078125 C 6.359375 -10.398438 6.28125 -10.679688 6.21875 -10.921875 C 6.164062 -10.679688 6.085938 -10.382812 5.984375 -10.03125 C 5.878906 -9.675781 5.78125 -9.335938 5.6875 -9.015625 C 5.59375 -8.703125 5.523438 -8.476562 5.484375 -8.34375 L 4.5625 -5.359375 Z M 7.921875 -5.359375 "/></g></g></g><g fill="#000000" fill-opacity="1"><g transform="translate(117.748539, 54.398499)"><g><path d="M 11.96875 0 L 8.875 0 L 5.5 -5.421875 L 4.34375 -4.59375 L 4.34375 0 L 1.625 0 L 1.625 -12.875 L 4.34375 -12.875 L 4.34375 -6.984375 C 4.53125 -7.234375 4.710938 -7.484375 4.890625 -7.734375 C 5.066406 -7.992188 5.242188 -8.25 5.421875 -8.5 L 8.90625 -12.875 L 11.9375 -12.875 L 7.453125 -7.171875 Z M 11.96875 0 "/></g></g></g><g fill="#000000" fill-opacity="1"><g transform="translate(131.543132, 54.398499)"><g><path d="M 9.03125 0 L 1.625 0 L 1.625 -12.875 L 9.03125 -12.875 L 9.03125 -10.640625 L 4.34375 -10.640625 L 4.34375 -7.8125 L 8.703125 -7.8125 L 8.703125 -5.578125 L 4.34375 -5.578125 L 4.34375 -2.25 L 9.03125 -2.25 Z M 9.03125 0 "/></g></g></g><g fill="#000000" fill-opacity="1"><g transform="translate(143.46267, 54.398499)"><g><path d="M 5.375 -12.875 C 6.539062 -12.875 7.503906 -12.734375 8.265625 -12.453125 C 9.023438 -12.171875 9.585938 -11.742188 9.953125 -11.171875 C 10.328125 -10.597656 10.515625 -9.878906 10.515625 -9.015625 C 10.515625 -8.429688 10.398438 -7.914062 10.171875 -7.46875 C 9.953125 -7.03125 9.660156 -6.660156 9.296875 -6.359375 C 8.929688 -6.054688 8.539062 -5.804688 8.125 -5.609375 L 11.90625 0 L 8.875 0 L 5.796875 -4.9375 L 4.34375 -4.9375 L 4.34375 0 L 1.625 0 L 1.625 -12.875 Z M 5.171875 -10.640625 L 4.34375 -10.640625 L 4.34375 -7.15625 L 5.234375 -7.15625 C 6.128906 -7.15625 6.769531 -7.304688 7.15625 -7.609375 C 7.550781 -7.910156 7.75 -8.351562 7.75 -8.9375 C 7.75 -9.550781 7.539062 -9.988281 7.125 -10.25 C 6.707031 -10.507812 6.054688 -10.640625 5.171875 -10.640625 Z M 5.171875 -10.640625 "/></g></g></g><g clip-path="url(#47d4bd8ada)"><path fill="#a6a8ab" d="M 149.523438 35.152344 L 132.484375 18.015625 L 134.988281 15.496094 L 154.503906 35.121094 L 149.523438 35.121094 Z M 37.214844 35.152344 L 54.253906 18.015625 L 51.753906 15.496094 L 32.238281 35.121094 L 37.214844 35.121094 Z M 111.460938 35.152344 L 93.371094 16.957031 L 75.277344 35.152344 L 70.300781 35.152344 L 93.371094 11.949219 L 116.46875 35.179688 L 111.460938 35.179688 Z M 111.460938 35.152344 " fill-opacity="1" fill-rule="evenodd"/></g><g clip-path="url(#7d8f82070d)"><path fill="#ed7953" d="M 90.15625 28.714844 L 96.554688 28.714844 L 96.554688 35.152344 L 90.15625 35.152344 Z M 90.15625 28.714844 " fill-opacity="1" fill-rule="evenodd"/></g><g clip-path="url(#2b7e29f941)"><path fill="#ed7953" d="M 47.398438 28.714844 L 53.800781 28.714844 L 53.800781 35.152344 L 47.398438 35.152344 Z M 47.398438 28.714844 " fill-opacity="1" fill-rule="evenodd"/></g><g clip-path="url(#15e14cd7c4)"><path fill="#ed7953" d="M 132.910156 28.714844 L 139.3125 28.714844 L 139.3125 35.152344 L 132.910156 35.152344 Z M 132.910156 28.714844 " fill-opacity="1" fill-rule="evenodd"/></g><g clip-path="url(#1613c2628a)"><path fill="#ed7953" d="M 67.226562 26.339844 L 58.464844 35.152344 L 65.863281 35.152344 L 93.371094 7.515625 L 120.878906 35.152344 L 128.273438 35.152344 L 119.511719 26.339844 L 135.128906 10.660156 L 159.511719 35.152344 L 164.488281 35.152344 L 135.128906 5.625 L 108.417969 12.835938 L 112.742188 19.53125 L 106.570312 13.320312 L 93.371094 0.046875 L 80.171875 13.320312 L 73.996094 19.53125 L 78.320312 12.835938 L 51.609375 5.625 L 22.253906 35.152344 L 27.230469 35.152344 L 51.609375 10.660156 Z M 67.226562 26.339844 " fill-opacity="1" fill-rule="evenodd"/></g></svg>